<?xml version="1.0" encoding="UTF-8" standalone="no"?>
<svg
   xmlns:dc="http://purl.org/dc/elements/1.1/"
   xmlns:cc="http://creativecommons.org/ns#"
   xmlns:rdf="http://www.w3.org/1999/02/22-rdf-syntax-ns#"
   xmlns:svg="http://www.w3.org/2000/svg"
   xmlns="http://www.w3.org/2000/svg"
   id="svg5231"
   xml:space="preserve"
   viewBox="0 0 640 640"
   height="640"
   width="640"
   version="1.1"><metadata
   id="metadata5235"><rdf:RDF><cc:Work
       rdf:about=""><dc:format>image/svg+xml</dc:format><dc:type
         rdf:resource="http://purl.org/dc/dcmitype/StillImage" /><dc:title></dc:title></cc:Work></rdf:RDF></metadata>
<desc
   id="desc5224">Created with Fabric.js 4.6.0</desc>
<defs
   id="defs5226">
</defs>
<g
   id="IF9UHbaos9Cd9jlesdPkv"
   transform="matrix(1 0 0 1 324.5 320)">
<path
   id="path5228"
   d="m 79.00838,-202.1405 0.01859,-0.055 H 259.6534 v 49.7811 H 100.85163 v 0 c -13.29167,0 -25.35712,7.76747 -30.85957,19.86671 l -30.69842,67.5022 h 220.27412 v 43.72049 H 19.81344 l -97.85996,219.63254 v 0 c -1.06255,2.38475 -3.43874,3.9118 -6.04938,3.88761 -2.61064,-0.0242 -4.95813,-1.59498 -5.97633,-3.99901 l -169.58118,-400.39163 h 3.37632 v 0 c 32.21922,0 61.33821,19.20149 74.02921,48.81596 l 89.98551,209.98124 v 0 c 1.41577,3.30371 4.64583,5.46245 8.23984,5.50693 3.59401,0.04448 6.8765,-2.03366 8.3736,-5.30132 33.85768,-73.89979 102.59903,-223.93877 102.59903,-223.93877 9.42973,-20.5819 29.58353,-34.04931 52.05828,-35.00909"
   style="opacity:1;vector-effect:non-scaling-stroke;fill:none;fill-rule:nonzero;stroke:#000000;stroke-width:9;stroke-linecap:butt;stroke-linejoin:miter;stroke-miterlimit:4;stroke-dasharray:none;stroke-dashoffset:0" />
</g>
</svg>